<svg width="64" height="82" viewBox="0 0 64 82" fill="none" xmlns="http://www.w3.org/2000/svg">
<g clip-path="url(#clip0)">
<path d="M9.3291 18.3999H42.7335" stroke="#464B55" stroke-width="2" stroke-miterlimit="10" stroke-linecap="round" stroke-linejoin="round"/>
<path d="M29.3919 71.7H5.11603C2.80882 71.7 1.00317 69.9 1.00317 67.6V12.7C1.00317 12.5 1.10349 12.4 1.2038 12.3L12.3386 1.2C12.4389 1.1 12.6395 1 12.7398 1H47.0471C49.254 1 51.1599 2.8 51.1599 5.1V27.8" stroke="#464B55" stroke-width="2" stroke-miterlimit="10" stroke-linecap="round" stroke-linejoin="round"/>
<path d="M1.00317 12.5H9.93107C11.3355 12.5 12.4389 11.4 12.4389 10V1" stroke="#464B55" stroke-width="2" stroke-miterlimit="10" stroke-linecap="round" stroke-linejoin="round"/>
<path d="M9.3291 24.6001H42.7335" stroke="#464B55" stroke-width="2" stroke-miterlimit="10" stroke-linecap="round" stroke-linejoin="round"/>
<path d="M9.3291 30.8H28.8902" stroke="#464B55" stroke-width="2" stroke-miterlimit="10" stroke-linecap="round" stroke-linejoin="round"/>
<path d="M36.815 63.8L33.605 78L40.9279 75.4001L46.4451 81L48.8526 70.7" stroke="#464B55" stroke-width="2" stroke-miterlimit="10" stroke-linecap="round" stroke-linejoin="round"/>
<path d="M47.047 65.3L50.1567 74.6999L53.5674 70.5L58.884 71.8L55.8746 63.2" stroke="#464B55" stroke-width="2" stroke-miterlimit="10" stroke-linecap="round" stroke-linejoin="round"/>
<path d="M9.3291 41.8999H10.6332" stroke="#FFC300" stroke-width="2" stroke-miterlimit="10" stroke-linecap="round" stroke-linejoin="round"/>
<path d="M9.3291 48H10.6332" stroke="#FFC300" stroke-width="2" stroke-miterlimit="10" stroke-linecap="round" stroke-linejoin="round"/>
<path d="M9.3291 54.2H10.6332" stroke="#FFC300" stroke-width="2" stroke-miterlimit="10" stroke-linecap="round" stroke-linejoin="round"/>
<path d="M15.7493 41.8999H22.4703" stroke="#464B55" stroke-width="2" stroke-miterlimit="10" stroke-linecap="round" stroke-linejoin="round"/>
<path d="M15.7493 48H22.4703" stroke="#464B55" stroke-width="2" stroke-miterlimit="10" stroke-linecap="round" stroke-linejoin="round"/>
<path d="M15.7493 54.2H22.4703" stroke="#464B55" stroke-width="2" stroke-miterlimit="10" stroke-linecap="round" stroke-linejoin="round"/>
<path d="M62.6959 45.2C62.395 43.9 61.3918 42.8999 60.0878 42.5999C60.6896 41.4999 60.5893 40.1 59.7868 39C58.9843 37.9 57.7806 37.4 56.5768 37.6C56.5768 36.4 56.0752 35.2 54.9718 34.5C53.768 33.8 52.3636 33.8 51.3605 34.5C50.9592 33.3 49.9561 32.4 48.5517 32.2C47.2476 32 46.0439 32.5 45.2414 33.5C44.4389 32.6 43.1348 32.2 41.931 32.5C40.627 32.8 39.6238 33.8 39.3229 35.1C38.2194 34.5 36.815 34.6 35.7116 35.4C34.6081 36.2 34.1066 37.4 34.3072 38.6C33.1034 38.6 31.8997 39.1 31.1975 40.2C30.4953 41.4 30.4953 42.8 31.1975 43.8C29.9937 44.2 29.0909 45.1999 28.8903 46.5999C28.6896 47.8999 29.1912 49.1 30.1944 49.9C29.2915 50.7 28.8903 52 29.1912 53.2C29.4922 54.5 30.4953 55.4999 31.7994 55.7999C31.1975 56.8999 31.2978 58.3 32.1003 59.4C32.9028 60.5 34.1066 60.9999 35.3103 60.7999C35.3103 61.9999 35.8119 63.2 36.9154 63.9C38.1191 64.5999 39.5235 64.5999 40.5266 63.9C40.9279 65.0999 41.931 65.9999 43.3354 66.1999C44.6395 66.3999 45.8433 65.8999 46.6458 64.8999C47.4483 65.7999 48.7523 66.1999 49.9561 65.8999C51.2602 65.5999 52.2633 64.5999 52.5643 63.2999C53.6677 63.8999 55.0721 63.7999 56.1755 62.9999C57.279 62.1999 57.7806 60.9999 57.5799 59.7999C58.7837 59.7999 59.9875 59.2999 60.6896 58.1999C61.3918 57 61.3918 55.5999 60.6896 54.5999C61.8934 54.1999 62.7962 53.1999 62.9969 51.7999C63.1975 50.4999 62.6959 49.3 61.6928 48.5C62.5956 47.7 62.9969 46.5 62.6959 45.2Z" stroke="#FFC300" stroke-width="2" stroke-miterlimit="10" stroke-linecap="round" stroke-linejoin="round"/>
<path d="M47.1714 60.216C53.2773 59.4871 57.6344 53.9619 56.9032 47.875C56.172 41.7882 50.6294 37.4447 44.5235 38.1736C38.4176 38.9025 34.0605 44.4278 34.7917 50.5146C35.5229 56.6014 41.0655 60.9449 47.1714 60.216Z" stroke="#464B55" stroke-width="2" stroke-miterlimit="10" stroke-linecap="round" stroke-linejoin="round"/>
</g>
<defs>
<clipPath id="clip0">
<rect width="64" height="82" fill="white"/>
</clipPath>
</defs>
</svg>
