<svg width="82" height="82" viewBox="0 0 82 82" fill="none" xmlns="http://www.w3.org/2000/svg">
<g clip-path="url(#clip0)">
<path d="M37.1 82C37 82 36.9 82 36.8 82C32.2 81.8985 28.1 80.7822 22.9 78.1436C21.1 77.2302 19.5 76.4183 18 75.6065L17.3 75.2005C13.6 73.2723 8.5 72.5619 4 72.2575C3.4 72.2575 3 71.75 3.1 71.1411C3.1 70.6337 3.6 70.1263 4.2 70.2277C8.9 70.6337 14.2 71.2426 18.2 73.4753L18.9 73.8812C20.3 74.6931 22 75.505 23.7 76.4183C28.7 78.854 32.5 79.8688 36.8 80.0718C36.9 80.0718 37 80.0718 37.1 80.0718C41.6 80.0718 49.5 76.9258 60.2 71.0396C70.1 65.5594 79.8 59.8763 80 56.8317C80 56.5273 80 56.1213 79.3 55.6139C76.6 53.3812 67.7 58.0495 59.9 62.2104C58.3 63.1238 56.6 63.9357 55 64.7476C54.5 65.052 53.9 64.849 53.7 64.3416C53.5 63.8342 53.6 63.2253 54.1 63.0223C55.7 62.2104 57.3 61.2971 59 60.4852C68.2 55.6139 76.9 50.9456 80.6 54.0916C81.9 55.1065 82.1 56.3243 82 57.1362C81.7 60.8911 75 65.255 61.1 72.9679C50 78.854 42 82 37.1 82Z" fill="#FFC300"/>
<path d="M48.6 72.0545C46.4 72.0545 43.5 71.0397 39.9 69.8218C38.8 69.4159 37.8 69.1114 36.8 68.7055C32.1 66.9802 28.1 65.5595 22.3 65.052C21.7 65.052 21.3 64.5446 21.4 63.9357C21.4 63.3268 21.9 62.9208 22.5 63.0223C28.5 63.5298 32.6 65.052 37.5 66.7773C38.5 67.0817 39.5 67.4877 40.5 67.8936C44.7 69.3144 48.3 70.6337 49.8 69.8218C50.1 69.7204 50.4 69.4159 50.7 68.604C51.5 65.8639 45.1 60.4852 36.9 57.1362C34.4 56.1213 32.3 54.7005 30.3 53.3812C27.6 51.5545 25 49.9307 22.1 49.5248C17.9 49.0174 14.2 49.9307 11 51.0471C7.3 52.2649 4.2 53.0768 1.2 53.5842C0.6 53.6857 0.0999995 53.2798 -5.15953e-07 52.7723C-0.100001 52.2649 0.299999 51.656 0.799999 51.656C3.7 51.1486 6.7 50.4382 10.3 49.2204C13.5 48.2055 17.7 46.9877 22.2 47.5966C25.5 48.0025 28.3 49.8293 31.2 51.7575C33.2 53.0768 35.2 54.3961 37.5 55.3095C45.8 58.6585 53.8 64.7476 52.5 69.2129C52.2 70.3293 51.5 71.1411 50.6 71.6486C50.1 71.953 49.4 72.0545 48.6 72.0545Z" fill="#FFC300"/>
<path d="M50.3 60.1807C50 60.1807 49.6 59.9777 49.5 59.6733C49.2 59.1658 49.3 58.5569 49.8 58.2525L51.4 57.2376C57.2 53.4827 63.1 49.6262 67.3 49.6262C69.1 49.6262 70.5 50.1336 71.3 50.9455C71.7 51.3515 71.6 51.9604 71.2 52.3663C70.8 52.7723 70.2 52.6708 69.8 52.2648C69.6 52.0619 69 51.5544 67.3 51.5544C63.7 51.5544 57.7 55.4109 52.4 58.8614L50.8 59.8762C50.7 60.0792 50.5 60.1807 50.3 60.1807Z" fill="#FFC300"/>
<path d="M46.5 57.5421C46.2 57.5421 45.9 57.4406 45.7 57.1361C45.4 56.7302 45.5 56.0198 45.9 55.7153C47 54.9034 48 54.0916 49 53.3812C52.8 50.4381 55.9 48.1039 58.9 47.7995C59.7 47.698 60.4 47.7995 61 47.901C61.5 48.0025 61.9 48.6114 61.8 49.1188C61.7 49.6262 61.1 50.0322 60.6 49.9307C60.1 49.7277 59.6 49.7277 59 49.8292C56.6 50.0322 53.8 52.2648 50.2 55.0049C49.2 55.8168 48.2 56.5272 47.1 57.3391C46.9 57.4406 46.7 57.5421 46.5 57.5421Z" fill="#FFC300"/>
<path d="M42.3 55.1065C42 55.1065 41.7 55.005 41.5 54.7006C41.2 54.2946 41.2 53.5842 41.6 53.2798C42.8 52.2649 43.8 51.3515 44.6 50.5397C46.3 48.9159 47.5 47.6981 49.6 47.3936C50.4 47.2921 51.1 47.2921 51.7 47.3936C52.2 47.4951 52.6 48.0025 52.5 48.6114C52.4 49.1189 51.9 49.5248 51.3 49.4233C50.9 49.3218 50.4 49.3218 49.9 49.4233C48.5 49.6263 47.6 50.4382 46 51.9605C45.2 52.7723 44.2 53.7872 42.9 54.802C42.7 55.005 42.5 55.1065 42.3 55.1065Z" fill="#FFC300"/>
<path d="M48.6 44.6534C47.3 44.6534 44.9 43.8415 43.9 43.4356C42.2 42.7252 37.5 42.6237 35 43.5371C34.2 43.8415 31.8 44.6534 30.5 44.6534C26.9 44.6534 24 40.8985 24 36.2302C24 31.3589 27.2 27.5024 31 27.9084C31.1 27.7054 31.2 27.5024 31.3 27.2995C31.8 26.3861 32.5 24.8638 33.7 23.443C35.2 21.6163 37.2 20.6014 39.3 20.6014C41.4 20.6014 43.4 21.6163 45 23.5445C46.1 24.8638 46.8 26.0816 47.3 27.0965C47.5 27.4009 47.6 27.7054 47.8 27.9084C48.1 27.9084 48.4 27.8069 48.7 27.8069C52.3 27.8069 55.2 31.5618 55.2 36.2302C55.1 40.8985 52.2 44.6534 48.6 44.6534ZM39.8 40.797C41.8 40.797 43.6 41.1014 44.7 41.5074C45.8 41.9133 47.8 42.6237 48.6 42.6237C51.1 42.6237 53.1 39.7821 53.1 36.2302C53.1 32.6782 51.1 29.8366 48.6 29.8366C48.3 29.8366 48 29.8366 47.8 29.9381C46.7 30.2425 46.2 29.2277 45.5 28.0099C45 27.0965 44.4 25.9802 43.4 24.7623C42.2 23.3415 40.8 22.5297 39.3 22.5297C37.8 22.5297 36.4 23.2401 35.2 24.6608C34.2 25.8787 33.5 27.198 33 28.1113C32.4 29.2277 32 30.0396 31.1 29.8366C30.9 29.8366 30.7 29.7351 30.5 29.7351C28 29.7351 26 32.5767 26 36.1287C26 39.6806 28 42.5222 30.5 42.5222C31.3 42.5222 33.2 41.9133 34.3 41.5074C35.8 41.1014 37.9 40.797 39.8 40.797Z" fill="#464B55"/>
<path d="M22.1 29.2277C21.2 29.2277 20.3 29.0247 19.4 28.5173C17.5 27.5024 16 25.6757 15.3 23.3415C14 19.1806 15.7 14.8168 19 13.7005C20.4 13.193 21.9 13.396 23.3 14.1064C25.2 15.1212 26.7 16.948 27.4 19.2821C28.7 23.5445 27 27.8069 23.7 29.0247C23.3 29.1262 22.7 29.2277 22.1 29.2277ZM20.8 15.4257C20.4 15.4257 20.1 15.5272 19.8 15.6287C17.5 16.4405 16.4 19.5866 17.4 22.8341C17.9 24.6608 19.1 26.0816 20.5 26.792C21.4 27.2995 22.4 27.4009 23.3 27.0965C25.6 26.2846 26.7 23.1386 25.7 19.891C25.2 18.0643 24 16.6435 22.6 15.9331C22 15.6287 21.4 15.4257 20.8 15.4257Z" fill="#464B55"/>
<path d="M32.5 17.9629C31.2 17.9629 30 17.5569 28.9 16.745C27 15.3243 25.6 12.9901 25.2 10.3515C24.4 5.48019 26.9 1.01485 30.7 0.304449C32.3 -6.12438e-06 33.9 0.405934 35.4 1.42079C37.2 2.74009 38.6 5.07425 39 7.81435C39.8 12.6856 37.3 17.151 33.5 17.8614C33.2 17.9629 32.9 17.9629 32.5 17.9629ZM31.7 2.23267C31.5 2.23267 31.3 2.23267 31 2.33415C28.3 2.84158 26.5 6.29207 27.1 10.047C27.5 12.1782 28.5 14.1064 30 15.1213C31 15.8317 32.1 16.1361 33.1 15.9332C35.8 15.4257 37.6 11.9752 37 8.22029C36.6 6.0891 35.6 4.16088 34.1 3.14603C33.4 2.43564 32.5 2.23267 31.7 2.23267Z" fill="#464B55"/>
<path d="M58 29.2277C57.4 29.2277 56.9 29.1262 56.3 28.9233C53 27.8069 51.3 23.4431 52.6 19.1807C53.3 16.8465 54.8 14.9183 56.7 14.005C58.1 13.2946 59.6 13.0916 61 13.599C64.3 14.7153 66 19.0792 64.7 23.2401C64 25.5743 62.5 27.5025 60.6 28.4158C59.8 29.0248 58.9 29.2277 58 29.2277ZM59.3 15.4257C58.7 15.4257 58.1 15.5272 57.6 15.8317C56.2 16.5421 55.1 18.0644 54.5 19.7896C53.5 22.9356 54.6 26.1832 56.9 26.995C57.8 27.2995 58.7 27.198 59.7 26.6906C61.1 25.9802 62.2 24.4579 62.8 22.7327C63.8 19.5866 62.7 16.3391 60.4 15.5272C60 15.5272 59.7 15.4257 59.3 15.4257Z" fill="#464B55"/>
<path d="M47.6 18.0644C47.3 18.0644 46.9 18.0644 46.6 17.9629C42.7 17.2525 40.3 12.6857 41 7.81439C41.4 5.0743 42.8 2.74014 44.8 1.31935C46.2 0.304494 47.9 -0.101447 49.5 0.203009C53.4 0.913405 55.8 5.48024 55.1 10.3515C54.7 13.0916 53.3 15.4258 51.3 16.8466C50.1 17.557 48.9 18.0644 47.6 18.0644ZM48.4 2.02974C47.5 2.02974 46.7 2.3342 45.9 2.94311C44.4 3.95796 43.3 5.88618 43 8.11885C42.4 11.9753 44.1 15.4258 46.9 16.0347C48 16.2377 49.1 15.9332 50.1 15.2228C51.6 14.1065 52.7 12.2797 53 10.0471C53.6 6.19063 51.9 2.74014 49.1 2.13123C48.9 2.02974 48.7 2.02974 48.4 2.02974Z" fill="#464B55"/>
</g>
<defs>
<clipPath id="clip0">
<rect width="82" height="82" fill="white"/>
</clipPath>
</defs>
</svg>
