<svg width="82" height="82" viewBox="0 0 82 82" fill="none" xmlns="http://www.w3.org/2000/svg">
<g clip-path="url(#clip0)">
<path d="M70.3 42.9131V72.5903C70.3 77.2435 66.7 81.0695 62.1 81.0695H19.8C15.3 81.0695 11.6 77.3469 11.6 72.5903V42.9131" stroke="#464B55" stroke-width="2" stroke-miterlimit="10" stroke-linecap="round" stroke-linejoin="round"/>
<path d="M74.6 38.1564L42.1 11.0644C41.5 10.5474 40.6 10.5474 39.9 11.0644L7.39998 38.1564C5.89998 39.3973 3.79998 39.3973 2.39998 38.1564C0.499976 36.502 0.499976 33.5032 2.39998 31.8487L31.9 7.23841L38 2.06817C39.7 0.620505 42.2 0.620505 43.9 2.06817L58.8 14.4767C59.2 14.787 59.8 14.4767 59.8 13.9597V6.72139C59.8 5.89415 60.5 5.17032 61.3 5.17032H69.5C70.3 5.17032 71 5.89415 71 6.72139V24.3002C71 24.507 71.1 24.7138 71.2 24.8172L79.5 31.7453C81.4 33.3998 81.4 36.3986 79.5 38.053C78.1 39.3973 76 39.3973 74.6 38.1564Z" stroke="#464B55" stroke-width="2" stroke-miterlimit="10" stroke-linecap="round" stroke-linejoin="round"/>
<path d="M41.2001 65.145L61.3 40.6381C62.2 39.604 62.2001 38.0529 61.4001 37.0189C60.4001 35.6746 58.5 35.4678 57.3 36.5019L38 53.3568C37.6 53.7705 37.1 53.7705 36.7 53.3568L27.4 47.256C26 46.3253 24.3 46.5321 23.1 47.773C21.8 49.1172 21.7 51.2888 23 52.633L33.7 65.145C35.7 67.5233 39.2001 67.5233 41.2001 65.145Z" stroke="#FFC300" stroke-width="2" stroke-miterlimit="10" stroke-linecap="round" stroke-linejoin="round"/>
</g>
<defs>
<clipPath id="clip0">
<rect width="82" height="82" fill="white"/>
</clipPath>
</defs>
</svg>
