<svg width="232" height="55" viewBox="0 0 232 55" fill="none" xmlns="http://www.w3.org/2000/svg">
<path d="M65.2332 19.6709C59.3983 19.6709 55.0422 24.511 55.0422 31.2546C55.0422 37.7263 59.237 42.1858 65.2332 42.1858C71.0682 42.1858 75.3974 37.3456 75.3974 30.602C75.3974 24.1575 71.2295 19.6709 65.2332 19.6709ZM65.2332 39.5209C61.415 39.5209 58.9143 36.3667 58.9143 31.309C58.9143 26.0338 61.6032 22.3357 65.2332 22.3357C69.0515 22.3357 71.5522 25.4899 71.5522 30.5476C71.5522 35.8228 68.8633 39.5209 65.2332 39.5209ZM91.6653 26.1969C91.6653 25.4355 91.2082 25.2724 89.9175 25.2724C88.0084 25.2724 87.4975 25.789 87.4975 26.5504C87.4975 27.1486 88.1428 28.0188 88.1428 30.1941V34.6264C88.1428 37.264 86.4757 39.7929 84.3784 39.7929C82.3348 39.7929 81.5819 38.3789 81.5819 35.415V26.1697C81.5819 25.4084 81.1248 25.2452 79.8341 25.2452C78.167 25.2452 77.6292 25.7618 77.6292 26.5232C77.6292 27.1214 78.0594 27.9916 78.0594 30.1669V35.6053C78.0594 39.7385 79.8341 42.1314 83.4372 42.1314C86.4757 42.1314 87.9008 39.7113 88.3042 39.7113C88.4386 39.7113 88.5193 39.7657 88.6 40.9077C88.7075 41.5331 88.9495 42.1042 89.4604 42.1042C89.7831 42.1042 90.052 42.077 90.9124 41.8051C92.0956 41.4244 92.6871 41.1253 92.6871 40.3367C92.6871 39.5209 91.6653 38.4877 91.6653 36.2035V26.1969ZM102.771 25.0549C100.055 25.0549 99.5976 27.6653 99.033 27.6653C98.8448 27.6653 98.7372 27.5293 98.7372 27.0127V25.925C98.7372 25.4083 98.3876 25.0549 97.8767 25.0549C97.7154 25.0549 97.1238 25.082 96.2903 25.3268C95.2147 25.5987 94.5156 25.8706 94.5156 26.7408C94.5156 27.8828 95.2147 28.3451 95.2147 30.5204V37.0193C95.2147 39.1946 94.7845 40.1192 94.7845 40.663C94.7845 41.4516 95.2954 41.9682 96.9894 41.9682C98.8985 41.9682 99.4094 41.4516 99.4094 40.663C99.4094 40.1192 98.7372 39.1946 98.7372 37.0193V32.4511C98.7372 30.2757 99.759 28.1547 100.781 28.1547C101.157 28.1547 101.292 28.3179 101.399 28.6442C101.668 29.5143 102.206 30.0038 103.066 30.0038C104.465 30.0038 105.271 28.9977 105.271 27.5293C105.271 25.9794 104.303 25.0549 102.771 25.0549ZM116.538 19.9156C115.22 19.9156 113.903 20.0244 112.558 20.0244C111.698 20.0244 110.81 19.9156 109.977 19.9156C109.197 19.9156 108.74 20.4322 108.74 21.1936C108.74 21.7918 109.17 22.662 109.17 24.8373V37.0193C109.17 39.1946 108.74 40.1192 108.74 40.663C108.74 41.4516 109.224 41.9682 110.972 41.9682C112.908 41.9682 113.419 41.4516 113.419 40.663C113.419 40.1192 112.746 39.1946 112.746 37.0193V35.0071C112.746 33.8922 113.042 33.5659 114.037 33.5659H116.161C121.647 33.5659 124.658 30.9827 124.658 26.3329C124.685 22.1181 121.835 19.9156 116.538 19.9156ZM115.839 30.8739C113.446 30.8739 112.773 30.738 112.773 30.0038V24.4838C112.773 22.7164 113.096 22.5532 116.108 22.5532C119.281 22.5532 120.84 23.7496 120.84 26.3329C120.84 29.4599 119.307 30.8739 115.839 30.8739ZM133.102 25.0549C128.477 25.0549 125.519 28.3179 125.519 33.4028C125.519 38.7868 128.638 42.1858 133.532 42.1858C135.844 42.1858 137.753 41.37 138.99 39.8472C139.259 39.5209 139.367 39.1403 139.367 38.7596C139.367 38.542 139.313 38.2973 139.098 38.1342C138.937 37.9982 138.748 37.9166 138.479 37.9166C138.211 37.9166 137.942 38.0254 137.511 38.2429C136.328 38.9227 135.36 39.2218 134.07 39.2218C131.219 39.2218 129.256 37.1553 129.256 34.1913C129.256 34.0282 129.31 33.9738 129.445 33.9738H138.963C139.797 33.9738 140.227 33.4572 140.227 32.3423C140.254 27.8828 137.458 25.0549 133.102 25.0549ZM136.328 31.5809H129.445C129.31 31.5809 129.256 31.5265 129.256 31.3634C129.256 29.188 130.816 27.4477 133.075 27.4477C135.199 27.4477 136.517 28.9433 136.517 31.3634C136.543 31.5265 136.463 31.5809 136.328 31.5809ZM150.687 39.0587C150.391 39.0587 150.176 39.1675 149.934 39.2762C149.262 39.6297 148.966 39.7929 148.428 39.7929C147.326 39.7929 146.761 38.9227 146.761 37.3184V28.7801C146.761 27.9916 146.976 27.774 147.568 27.774H149.773C150.526 27.774 150.741 27.339 150.741 26.5776C150.741 25.7347 150.472 25.4084 149.773 25.4084H147.676C147.003 25.4084 146.761 25.1908 146.761 24.4023V23.2058C146.761 22.3629 146.331 22.0094 145.659 22.0094C144.234 22.0094 144.261 23.9672 141.921 25.4627C141.061 26.061 140.738 26.3057 140.738 26.8223C140.738 27.4477 140.899 27.8012 141.545 27.8012H142.378C143.024 27.8012 143.239 28.0188 143.239 28.8073V37.2912C143.239 40.7446 144.906 42.2129 147.783 42.2129C149.128 42.2129 150.364 41.6691 151.117 40.799C151.386 40.4999 151.494 40.2007 151.494 39.9288C151.494 39.4122 151.117 39.0587 150.687 39.0587ZM162.169 19.9156C160.851 19.9156 159.534 20.0244 158.189 20.0244C157.329 20.0244 156.441 19.9156 155.608 19.9156C154.828 19.9156 154.371 20.4322 154.371 21.1936C154.371 21.7918 154.801 22.662 154.801 24.8373V37.0193C154.801 39.1946 154.371 40.1192 154.371 40.663C154.371 41.4516 154.855 41.9682 156.603 41.9682C158.539 41.9682 159.05 41.4516 159.05 40.663C159.05 40.1192 158.377 39.1946 158.377 37.0193V35.0071C158.377 33.8922 158.673 33.5659 159.668 33.5659H161.792C167.278 33.5659 170.289 30.9827 170.289 26.3329C170.316 22.1181 167.466 19.9156 162.169 19.9156ZM161.47 30.8739C159.077 30.8739 158.404 30.738 158.404 30.0038V24.4838C158.404 22.7164 158.727 22.5532 161.739 22.5532C164.911 22.5532 166.471 23.7496 166.471 26.3329C166.471 29.4599 164.965 30.8739 161.47 30.8739ZM179.001 25.0549C174.35 25.0549 171.069 28.6442 171.069 33.6475C171.069 38.678 174.296 42.1858 179.001 42.1858C183.653 42.1858 186.907 38.5964 186.907 33.5387C186.907 28.5354 183.68 25.0549 179.001 25.0549ZM179.001 39.8201C176.259 39.8201 174.807 37.5903 174.807 33.7563C174.807 29.8134 176.286 27.4477 179.001 27.4477C181.744 27.4477 183.196 29.6231 183.196 33.4843C183.196 37.4272 181.717 39.8201 179.001 39.8201ZM192.661 18.6104C192.661 18.0937 192.312 17.7402 191.801 17.7402C191.639 17.7402 191.048 17.7674 190.214 18.0122C189.139 18.2841 188.44 18.556 188.44 19.4261C188.44 20.5682 189.139 21.0305 189.139 23.2058V37.0193C189.139 39.1946 188.708 40.1192 188.708 40.663C188.708 41.4516 189.219 41.9682 190.913 41.9682C192.554 41.9682 193.118 41.4516 193.118 40.663C193.118 40.1192 192.661 39.1946 192.661 37.0193V18.6104ZM197.636 18.5288C196.049 18.5288 195.027 19.3717 195.027 20.677C195.027 21.955 196.049 22.8251 197.636 22.8251C199.222 22.8251 200.217 21.955 200.217 20.677C200.217 19.3989 199.222 18.5288 197.636 18.5288ZM199.652 25.9522C199.652 25.4355 199.276 25.082 198.792 25.082C198.631 25.082 198.012 25.1092 197.179 25.354C196.157 25.6259 195.404 25.8978 195.404 26.7679C195.404 27.91 196.157 28.3723 196.157 30.5476V37.0193C196.157 39.1946 195.485 40.1192 195.485 40.663C195.485 41.4516 195.995 41.9682 197.905 41.9682C199.572 41.9682 200.109 41.4516 200.109 40.663C200.109 40.1192 199.679 39.1946 199.679 37.0193V25.9522H199.652ZM209.87 27.4477C211.322 27.4477 212.263 28.3723 212.263 29.895C212.263 30.9827 212.909 31.6353 214.146 31.6353C215.248 31.6353 216.028 30.8739 216.028 29.9766C216.028 27.1758 213.5 25.082 209.951 25.082C205.245 25.082 201.911 28.5626 201.911 33.5931C201.911 38.7052 205.165 42.2129 209.924 42.2129C212.237 42.2129 214.092 41.3972 215.302 39.8744C215.571 39.5481 215.678 39.1675 215.678 38.7868C215.678 38.5692 215.625 38.3245 215.409 38.1614C215.248 38.0254 215.06 37.9438 214.791 37.9438C214.522 37.9438 214.253 38.0526 213.823 38.2701C212.64 38.9499 211.672 39.249 210.381 39.249C207.477 39.249 205.595 36.9649 205.595 33.43C205.622 29.8678 207.37 27.4477 209.87 27.4477ZM230.145 25.2996C228.639 25.2996 228.02 25.5715 228.02 26.5776C228.02 26.9583 228.236 27.2574 228.236 27.91C228.236 28.4267 228.101 29.1608 227.617 30.3301L225.52 35.5781C225.358 35.9588 225.197 36.2579 225.009 36.2579C224.821 36.2579 224.686 35.986 224.498 35.5781L222.374 30.3301C221.89 29.1608 221.755 28.3995 221.755 27.91C221.755 27.2574 221.97 26.9583 221.97 26.5776C221.97 25.4899 221.379 25.2996 219.362 25.2996C217.399 25.2996 216.673 25.4355 216.673 26.5776C216.673 27.2574 217.507 27.6653 218.582 30.1941L222.777 40.4183C222.885 40.6358 222.938 40.8805 222.938 41.1253C222.938 41.3972 222.885 41.7507 222.75 42.077L221.459 45.2312C221.244 45.7479 221.11 45.9382 220.949 45.9382C220.572 45.9382 220.599 45.0681 219.308 45.0681C218.233 45.0681 217.534 45.8839 217.534 46.9715C217.534 48.3855 218.502 49.3916 219.981 49.3916C221.567 49.3916 222.589 48.4127 223.503 46.2373L230.118 30.2213C231.193 27.6653 232 27.2846 232 26.6048C232 25.5987 231.489 25.2996 230.145 25.2996Z" fill="white"/>
<path d="M46.9754 9.0932C46.9485 8.65813 46.2494 8.00553 45.7385 7.81519C38.7205 5.34072 31.6755 2.89345 24.6305 0.500563C23.9852 0.283028 23.1247 0.201452 22.4794 0.418987C15.3537 2.83907 8.25499 5.28634 1.18313 7.84238C0.645347 8.03272 0 8.98444 0 9.55547C0.0537784 13.5255 -0.0806544 17.5499 0.484019 21.4383C2.55449 35.8772 10.0028 46.8084 22.2912 54.3949C22.8558 54.7212 23.9045 54.8028 24.4692 54.4765C32.8586 49.6091 38.9625 42.6752 42.7269 34.4361C42.8345 34.2185 42.7807 33.9738 42.6463 33.8106C41.0329 31.9072 39.5809 30.2213 38.0751 28.4538C37.86 28.2091 37.4835 28.1819 37.2415 28.3995C36.7306 28.8617 36.2467 29.2968 35.7895 29.7319C34.5526 30.9011 33.4233 32.1791 32.0788 33.2124C30.8688 34.1369 29.5781 33.9738 28.9059 32.451C27.7765 29.895 30.573 27.5837 30.9764 25.0277C30.7881 27.2846 28.7177 28.9977 29.3092 31.2274C29.7663 32.8861 30.8688 33.0765 32.0519 31.9888C33.5846 30.5476 35.0635 29.0249 36.4349 27.4205C38.4784 25.0005 38.6398 22.1181 36.4618 19.8068C34.6602 17.9306 32.509 16.2175 30.2235 15.021C26.6472 13.172 22.1567 14.9395 19.6022 18.0665C17.9351 20.1059 15.7033 21.7918 13.4984 23.2602C11.643 24.4838 11.4279 25.0277 12.7724 26.9039C14.8697 29.8134 17.8007 30.1125 20.9467 29.7591C25.7599 29.2424 27.6152 34.1369 26.7817 37.2912C25.3834 42.5392 18.5536 44.8506 14.3051 41.234C12.2346 39.4666 10.3792 37.1824 9.03478 34.8167C5.05518 27.8828 3.63005 20.2691 4.06028 12.3018C4.08717 11.7036 4.92073 10.8335 5.56607 10.616C11.0246 8.63094 16.5369 6.72751 22.0491 4.87846C22.8289 4.60654 23.8238 4.52496 24.5767 4.76969C30.3579 6.70032 36.1122 8.71252 41.8396 10.7791C42.4043 10.9694 43.1034 11.9212 43.0496 12.4922C42.7001 16.8973 42.3236 21.3296 41.6514 25.7075C41.5169 26.496 41.4632 27.1486 41.4632 27.6925C41.5438 29.8406 44.5285 30.2485 45.1739 28.1819C47.0292 21.955 47.1905 15.5649 46.9754 9.0932ZM20.9467 21.5743C20.5434 21.5743 20.1938 21.1936 20.1938 20.7041C20.1938 20.2147 20.5165 19.834 20.9467 19.834C21.35 19.834 21.6996 20.2147 21.6996 20.7041C21.6727 21.1936 21.35 21.5743 20.9467 21.5743Z" fill="#FCC425"/>
</svg>
