<svg width="232" height="54" viewBox="0 0 232 54" fill="none" xmlns="http://www.w3.org/2000/svg">
<path d="M65.2332 19.2398C59.3982 19.2398 55.0422 24.045 55.0422 30.7398C55.0422 37.1647 59.2369 41.5919 65.2332 41.5919C71.0681 41.5919 75.3973 36.7868 75.3973 30.0919C75.3973 23.694 71.2295 19.2398 65.2332 19.2398ZM65.2332 38.9464C61.4149 38.9464 58.9142 35.8149 58.9142 30.7938C58.9142 25.5567 61.6031 21.8853 65.2332 21.8853C69.0515 21.8853 71.5521 25.0168 71.5521 30.0379C71.5521 35.275 68.8632 38.9464 65.2332 38.9464ZM91.6653 25.7187C91.6653 24.9628 91.2081 24.8008 89.9175 24.8008C88.0083 24.8008 87.4974 25.3137 87.4974 26.0696C87.4974 26.6635 88.1428 27.5274 88.1428 29.687V34.0872C88.1428 36.7058 86.4757 39.2163 84.3783 39.2163C82.3347 39.2163 81.5818 37.8126 81.5818 34.8701V25.6917C81.5818 24.9358 81.1247 24.7738 79.834 24.7738C78.1669 24.7738 77.6291 25.2867 77.6291 26.0426C77.6291 26.6365 78.0593 27.5004 78.0593 29.66V35.0591C78.0593 39.1624 79.834 41.5379 83.4372 41.5379C86.4757 41.5379 87.9008 39.1354 88.3041 39.1354C88.4386 39.1354 88.5192 39.1893 88.5999 40.3232C88.7074 40.944 88.9495 41.5109 89.4603 41.5109C89.783 41.5109 90.0519 41.484 90.9124 41.214C92.0955 40.8361 92.687 40.5391 92.687 39.7562C92.687 38.9464 91.6653 37.9206 91.6653 35.653V25.7187ZM102.77 24.5849C100.055 24.5849 99.5976 27.1764 99.0329 27.1764C98.8447 27.1764 98.7371 27.0414 98.7371 26.5285V25.4487C98.7371 24.9358 98.3876 24.5849 97.8767 24.5849C97.7153 24.5849 97.1238 24.6119 96.2902 24.8548C95.2146 25.1248 94.5155 25.3947 94.5155 26.2586C94.5155 27.3924 95.2146 27.8513 95.2146 30.0109V36.4628C95.2146 38.6224 94.7844 39.5403 94.7844 40.0802C94.7844 40.8631 95.2953 41.376 96.9893 41.376C98.8985 41.376 99.4093 40.8631 99.4093 40.0802C99.4093 39.5403 98.7371 38.6224 98.7371 36.4628V31.9276C98.7371 29.768 99.7589 27.6623 100.781 27.6623C101.157 27.6623 101.292 27.8243 101.399 28.1483C101.668 29.0121 102.206 29.498 103.066 29.498C104.465 29.498 105.271 28.4992 105.271 27.0414C105.271 25.5027 104.303 24.5849 102.77 24.5849ZM116.538 19.4827C115.22 19.4827 113.903 19.5907 112.558 19.5907C111.698 19.5907 110.81 19.4827 109.977 19.4827C109.197 19.4827 108.74 19.9957 108.74 20.7515C108.74 21.3454 109.17 22.2093 109.17 24.3689V36.4628C109.17 38.6224 108.74 39.5403 108.74 40.0802C108.74 40.8631 109.224 41.376 110.972 41.376C112.908 41.376 113.419 40.8631 113.419 40.0802C113.419 39.5403 112.746 38.6224 112.746 36.4628V34.4652C112.746 33.3584 113.042 33.0344 114.037 33.0344H116.161C121.647 33.0344 124.658 30.4699 124.658 25.8536C124.685 21.6694 121.835 19.4827 116.538 19.4827ZM115.839 30.3619C113.446 30.3619 112.773 30.2269 112.773 29.498V24.018C112.773 22.2633 113.096 22.1013 116.108 22.1013C119.28 22.1013 120.84 23.2891 120.84 25.8536C120.84 28.9581 119.307 30.3619 115.839 30.3619ZM133.102 24.5849C128.477 24.5849 125.519 27.8243 125.519 32.8724C125.519 38.2175 128.638 41.5919 133.532 41.5919C135.844 41.5919 137.753 40.7821 138.99 39.2703C139.259 38.9464 139.367 38.5685 139.367 38.1905C139.367 37.9746 139.313 37.7316 139.098 37.5696C138.936 37.4347 138.748 37.3537 138.479 37.3537C138.21 37.3537 137.942 37.4616 137.511 37.6776C136.328 38.3525 135.36 38.6494 134.07 38.6494C131.219 38.6494 129.256 36.5978 129.256 33.6553C129.256 33.4933 129.31 33.4393 129.445 33.4393H138.963C139.797 33.4393 140.227 32.9264 140.227 31.8196C140.254 27.3924 137.458 24.5849 133.102 24.5849ZM136.328 31.0637H129.445C129.31 31.0637 129.256 31.0098 129.256 30.8478C129.256 28.6882 130.816 26.9605 133.075 26.9605C135.199 26.9605 136.516 28.4452 136.516 30.8478C136.543 31.0098 136.463 31.0637 136.328 31.0637ZM150.687 38.4875C150.391 38.4875 150.176 38.5954 149.934 38.7034C149.262 39.0544 148.966 39.2163 148.428 39.2163C147.326 39.2163 146.761 38.3525 146.761 36.7598V28.2832C146.761 27.5004 146.976 27.2844 147.568 27.2844H149.773C150.526 27.2844 150.741 26.8525 150.741 26.0966C150.741 25.2597 150.472 24.9358 149.773 24.9358H147.675C147.003 24.9358 146.761 24.7198 146.761 23.937V22.7492C146.761 21.9123 146.331 21.5614 145.659 21.5614C144.234 21.5614 144.261 23.5051 141.921 24.9898C141.061 25.5837 140.738 25.8267 140.738 26.3396C140.738 26.9605 140.899 27.3114 141.545 27.3114H142.378C143.024 27.3114 143.239 27.5274 143.239 28.3102V36.7328C143.239 40.1612 144.906 41.6189 147.783 41.6189C149.127 41.6189 150.364 41.079 151.117 40.2152C151.386 39.9182 151.494 39.6213 151.494 39.3513C151.494 38.8384 151.117 38.4875 150.687 38.4875ZM162.169 19.4827C160.851 19.4827 159.534 19.5907 158.189 19.5907C157.329 19.5907 156.441 19.4827 155.608 19.4827C154.828 19.4827 154.371 19.9957 154.371 20.7515C154.371 21.3454 154.801 22.2093 154.801 24.3689V36.4628C154.801 38.6224 154.371 39.5403 154.371 40.0802C154.371 40.8631 154.855 41.376 156.603 41.376C158.539 41.376 159.05 40.8631 159.05 40.0802C159.05 39.5403 158.377 38.6224 158.377 36.4628V34.4652C158.377 33.3584 158.673 33.0344 159.668 33.0344H161.792C167.278 33.0344 170.289 30.4699 170.289 25.8536C170.316 21.6694 167.466 19.4827 162.169 19.4827ZM161.47 30.3619C159.076 30.3619 158.404 30.2269 158.404 29.498V24.018C158.404 22.2633 158.727 22.1013 161.739 22.1013C164.911 22.1013 166.471 23.2891 166.471 25.8536C166.471 28.9581 164.965 30.3619 161.47 30.3619ZM179.001 24.5849C174.35 24.5849 171.069 28.1483 171.069 33.1154C171.069 38.1095 174.296 41.5919 179.001 41.5919C183.653 41.5919 186.907 38.0285 186.907 33.0074C186.907 28.0403 183.68 24.5849 179.001 24.5849ZM179.001 39.2433C176.259 39.2433 174.807 37.0297 174.807 33.2234C174.807 29.3091 176.286 26.9605 179.001 26.9605C181.744 26.9605 183.196 29.1201 183.196 32.9534C183.196 36.8677 181.717 39.2433 179.001 39.2433ZM192.661 18.187C192.661 17.6741 192.312 17.3231 191.801 17.3231C191.639 17.3231 191.048 17.3501 190.214 17.5931C189.139 17.863 188.439 18.133 188.439 18.9968C188.439 20.1306 189.139 20.5896 189.139 22.7492V36.4628C189.139 38.6224 188.708 39.5403 188.708 40.0802C188.708 40.8631 189.219 41.376 190.913 41.376C192.554 41.376 193.118 40.8631 193.118 40.0802C193.118 39.5403 192.661 38.6224 192.661 36.4628V18.187ZM197.636 18.106C196.049 18.106 195.027 18.9428 195.027 20.2386C195.027 21.5074 196.049 22.3713 197.636 22.3713C199.222 22.3713 200.217 21.5074 200.217 20.2386C200.217 18.9698 199.222 18.106 197.636 18.106ZM199.652 25.4757C199.652 24.9628 199.276 24.6119 198.792 24.6119C198.63 24.6119 198.012 24.6389 197.178 24.8818C196.157 25.1518 195.404 25.4217 195.404 26.2856C195.404 27.4194 196.157 27.8783 196.157 30.0379V36.4628C196.157 38.6224 195.484 39.5403 195.484 40.0802C195.484 40.8631 195.995 41.376 197.904 41.376C199.572 41.376 200.109 40.8631 200.109 40.0802C200.109 39.5403 199.679 38.6224 199.679 36.4628V25.4757H199.652ZM209.87 26.9605C211.322 26.9605 212.263 27.8783 212.263 29.39C212.263 30.4699 212.909 31.1177 214.146 31.1177C215.248 31.1177 216.028 30.3619 216.028 29.471C216.028 26.6905 213.5 24.6119 209.951 24.6119C205.245 24.6119 201.911 28.0673 201.911 33.0614C201.911 38.1365 205.165 41.6189 209.924 41.6189C212.236 41.6189 214.092 40.8091 215.302 39.2973C215.571 38.9734 215.678 38.5954 215.678 38.2175C215.678 38.0016 215.624 37.7586 215.409 37.5966C215.248 37.4616 215.06 37.3807 214.791 37.3807C214.522 37.3807 214.253 37.4886 213.823 37.7046C212.64 38.3795 211.672 38.6764 210.381 38.6764C207.477 38.6764 205.595 36.4088 205.595 32.8994C205.622 29.363 207.369 26.9605 209.87 26.9605ZM230.145 24.8278C228.639 24.8278 228.02 25.0978 228.02 26.0966C228.02 26.4745 228.236 26.7715 228.236 27.4194C228.236 27.9323 228.101 28.6612 227.617 29.822L225.52 35.0321C225.358 35.41 225.197 35.7069 225.009 35.7069C224.821 35.7069 224.686 35.437 224.498 35.0321L222.374 29.822C221.89 28.6612 221.755 27.9053 221.755 27.4194C221.755 26.7715 221.97 26.4745 221.97 26.0966C221.97 25.0168 221.379 24.8278 219.362 24.8278C217.399 24.8278 216.673 24.9628 216.673 26.0966C216.673 26.7715 217.507 27.1764 218.582 29.687L222.777 39.8372C222.885 40.0532 222.938 40.2962 222.938 40.5391C222.938 40.8091 222.885 41.16 222.75 41.484L221.459 44.6154C221.244 45.1283 221.11 45.3173 220.949 45.3173C220.572 45.3173 220.599 44.4534 219.308 44.4534C218.233 44.4534 217.534 45.2633 217.534 46.3431C217.534 47.7469 218.502 48.7457 219.98 48.7457C221.567 48.7457 222.589 47.7739 223.503 45.6142L230.118 29.714C231.193 27.1764 232 26.7985 232 26.1236C232 25.1248 231.489 24.8278 230.145 24.8278Z" fill="#0D0D0D"/>
<path d="M46.9754 8.73856C46.9485 8.30663 46.2494 7.65875 45.7385 7.46978C38.7205 5.0132 31.6755 2.58362 24.6305 0.208032C23.9852 -0.00793022 23.1247 -0.0889162 22.4794 0.127046C15.3537 2.52963 8.25499 4.95921 1.18313 7.49677C0.645347 7.68574 0 8.63058 0 9.19748C0.0537784 13.1388 -0.0806544 17.1341 0.484019 20.9944C2.55449 35.329 10.0028 46.1811 22.2911 53.7128C22.8558 54.0367 23.9045 54.1177 24.4692 53.7938C32.8586 48.9616 38.9625 42.0778 42.7269 33.8982C42.8345 33.6823 42.7807 33.4393 42.6463 33.2773C41.0329 31.3876 39.5809 29.7139 38.0751 27.9592C37.86 27.7163 37.4835 27.6893 37.2415 27.9052C36.7306 28.3642 36.2466 28.7961 35.7895 29.228C34.5526 30.3888 33.4233 31.6576 32.0788 32.6834C30.8688 33.6013 29.5781 33.4393 28.9059 31.9276C27.7765 29.39 30.573 27.0954 30.9764 24.5578C30.7881 26.7984 28.7177 28.4991 29.3092 30.7128C29.7663 32.3595 30.8688 32.5484 32.0519 31.4686C33.5846 30.0379 35.0635 28.5261 36.4349 26.9334C38.4784 24.5308 38.6398 21.6693 36.4618 19.3747C34.6602 17.512 32.509 15.8113 30.2235 14.6235C26.6472 12.7879 22.1567 14.5426 19.6022 17.647C17.9351 19.6717 15.7033 21.3454 13.4984 22.8031C11.643 24.0179 11.4279 24.5578 12.7724 26.4205C14.8697 29.309 17.8007 29.606 20.9467 29.255C25.7599 28.7421 27.6152 33.6013 26.7816 36.7327C25.3834 41.9428 18.5535 44.2374 14.3051 40.647C12.2346 38.8923 10.3792 36.6247 9.03478 34.2761C5.05518 27.3923 3.63005 19.8336 4.06028 11.924C4.08717 11.3301 4.92073 10.4663 5.56607 10.2503C11.0246 8.27964 16.5369 6.38996 22.0491 4.55428C22.8289 4.28433 23.8238 4.20334 24.5767 4.4463C30.3579 6.36297 36.1122 8.36062 41.8396 10.4123C42.4043 10.6012 43.1034 11.5461 43.0496 12.113C42.7001 16.4862 42.3236 20.8865 41.6514 25.2327C41.5169 26.0156 41.4631 26.6635 41.4631 27.2034C41.5438 29.336 44.5285 29.7409 45.1739 27.6893C47.0292 21.5074 47.1905 15.1634 46.9754 8.73856ZM20.9467 21.1294C20.5434 21.1294 20.1938 20.7515 20.1938 20.2656C20.1938 19.7797 20.5165 19.4017 20.9467 19.4017C21.35 19.4017 21.6996 19.7797 21.6996 20.2656C21.6727 20.7515 21.35 21.1294 20.9467 21.1294Z" fill="#FCC425"/>
</svg>
