<svg width="42" height="90" viewBox="0 0 42 90" fill="none" xmlns="http://www.w3.org/2000/svg">
<path d="M21 62.0792C15.3875 62.0792 10.1189 59.8899 6.15053 55.9088C2.18221 51.9276 0 46.6419 0 41.0112V21.0679C0 15.4373 2.18221 10.1516 6.15053 6.17043C10.1189 2.18927 15.3875 0 21 0C26.6125 0 31.8811 2.18927 35.8495 6.17043C39.8178 10.1516 42 15.4373 42 21.0679V41.0112C42 46.6419 39.8178 51.9276 35.8495 55.9088C31.8811 59.8899 26.6125 62.0792 21 62.0792ZM21 2.99899C11.068 2.99899 2.98932 11.1038 2.98932 21.0679V41.0112C2.98932 50.9754 11.068 59.0802 21 59.0802C30.932 59.0802 39.0107 50.9754 39.0107 41.0112V21.0679C39.0107 11.1038 30.932 2.99899 21 2.99899Z" fill="white"/>
<path d="M20.9253 23.8495C19.4829 23.8495 18.3096 22.6724 18.3096 21.2254V14.0728C18.3096 12.6258 19.4829 11.4487 20.9253 11.4487C22.3676 11.4487 23.5409 12.6258 23.5409 14.0728V21.2254C23.5409 22.6799 22.3676 23.8495 20.9253 23.8495Z" fill="white"/>
<path d="M21 90L3 76.3599L4.82326 74L21 86.2597L37.1767 74L39 76.3599L21 90Z" fill="white"/>
</svg>
